# xmcd
#
# Track frame offsets: 
#        150
#        13287
#        25580
#        36082
#        46502
#        57172
#        70165
#        81912
#        95595
#        109627
#        122400
#        136000
#
# Disc length: 1954 seconds
#
# Revision: 0
# Processed by: cddbd v1.5.2PL0 Copyright (c) Steve Scherf et al.
# Submitted via: ExactAudioCopy v0.95b4
#
DISCID=8d07a00c
DTITLE=The Dells - Oh What A Nite
DYEAR=1900
DGENRE=R&B
TTITLE0=Oh What A Nite
TTITLE1=Time Makes You Change
TTITLE2=Dry Your Eyes
TTITLE3=Babay Open Up Your Heart
TTITLE4=Moving On
TTITLE5=Zing Zing Zing
TTITLE6=Why Do You Have To Go
TTITLE7=Jo Jo
TTITLE8=Pain In My Heart
TTITLE9=I Wanna Go Home
TTITLE10=Dreams Of Contentment
TTITLE11=Dance Dance Dance
EXTD=
EXTT0=
EXTT1=
EXTT2=
EXTT3=
EXTT4=
EXTT5=
EXTT6=
EXTT7=
EXTT8=
EXTT9=
EXTT10=
EXTT11=
PLAYORDER=
